<?xml version="1.0" standalone="no"?><!DOCTYPE svg PUBLIC "-//W3C//DTD SVG 1.1//EN" "http://www.w3.org/Graphics/SVG/1.1/DTD/svg11.dtd"><svg t="1649299301441" class="icon" viewBox="0 0 1024 1024" version="1.1" xmlns="http://www.w3.org/2000/svg" p-id="23378" xmlns:xlink="http://www.w3.org/1999/xlink" width="12" height="12"><defs><style type="text/css">@font-face { font-family: feedback-iconfont; src: url("//at.alicdn.com/t/font_1031158_u69w8yhxdu.woff2?t=1630033759944") format("woff2"), url("//at.alicdn.com/t/font_1031158_u69w8yhxdu.woff?t=1630033759944") format("woff"), url("//at.alicdn.com/t/font_1031158_u69w8yhxdu.ttf?t=1630033759944") format("truetype"); }
</style></defs><path d="M798.235936 511.99828c0 157.609784-127.772934 285.377557-285.374116 285.377557s-285.374116-127.767773-285.374117-285.377557c0-157.611504 127.772934-285.374116 285.374117-285.374117s285.374116 127.764333 285.374116 285.374117z" fill="#e6c5c3" p-id="23379" data-spm-anchor-id="a313x.7781069.0.i22" class="selected"></path><path d="M512.860099 511.99828m-220.653353 0a220.653353 220.653353 0 1 0 441.306706 0 220.653353 220.653353 0 1 0-441.306706 0Z" fill="#e97d73" p-id="23380" data-spm-anchor-id="a313x.7781069.0.i21" class=""></path><path d="M512.860099 511.99828m-179.46491 0a179.464911 179.464911 0 1 0 358.929821 0 179.464911 179.464911 0 1 0-358.929821 0Z" fill="#e25f53" p-id="23381" data-spm-anchor-id="a313x.7781069.0.i20" class=""></path><path d="M512.860099 511.99828m-123.565327 0a123.565327 123.565327 0 1 0 247.130655 0 123.565327 123.565327 0 1 0-247.130655 0Z" fill="#e43627" p-id="23382" data-spm-anchor-id="a313x.7781069.0.i17" class=""></path></svg>
